<svg width="24" height="24" viewBox="0 0 24 24" fill="none" xmlns="http://www.w3.org/2000/svg">
<path d="M4.5 3.75L19.5 20.25" stroke="#C8CDD2" stroke-width="1.5" stroke-linecap="round" stroke-linejoin="round"/>
<path d="M14.5223 14.7752C13.7864 15.4441 12.8149 15.7933 11.8215 15.7459C10.8281 15.6986 9.89422 15.2586 9.22524 14.5227C8.55626 13.7868 8.20698 12.8153 8.25424 11.822C8.3015 10.8286 8.74142 9.89463 9.47724 9.22559" stroke="#C8CDD2" stroke-width="1.5" stroke-linecap="round" stroke-linejoin="round"/>
<path d="M6.93698 6.43066C3.11486 8.36618 1.5 12 1.5 12C1.5 12 4.5 18.7493 12 18.7493C13.7572 18.7633 15.4926 18.3585 17.0623 17.5685" stroke="#C8CDD2" stroke-width="1.5" stroke-linecap="round" stroke-linejoin="round"/>
<path d="M19.5566 15.8528C21.6006 14.0222 22.4995 11.9998 22.4995 11.9998C22.4995 11.9998 19.4995 5.24904 11.9995 5.24904C11.3499 5.24798 10.7014 5.30079 10.0605 5.40693" stroke="#C8CDD2" stroke-width="1.5" stroke-linecap="round" stroke-linejoin="round"/>
<path d="M12.7051 8.31641C13.5021 8.46946 14.228 8.8768 14.774 9.47735C15.3199 10.0779 15.6564 10.8393 15.733 11.6472" stroke="#C8CDD2" stroke-width="1.5" stroke-linecap="round" stroke-linejoin="round"/>
</svg>
