<svg width="280" height="280" viewBox="0 0 280 280" fill="none" xmlns="http://www.w3.org/2000/svg">
<path d="M181.008 72.417C181.008 72.417 167.024 108.101 221.342 140.972C269.581 170.165 220.332 219.073 192.426 227.211C156.275 237.753 115.981 205.996 97.667 232.119C79.3533 258.242 23.691 211.511 48.884 170.713C80.2227 119.963 42.8752 119.179 36.6223 97.0733C32.1346 81.208 62.3433 37.4832 97.8943 51.1846C127.81 62.7137 133.145 50.3018 140.319 42.9924C150.664 32.4503 188.896 39.7236 181.008 72.417Z" fill="#E1F5FE"/>
<path d="M119.973 190.271C110.941 189.86 100.676 179.049 105.193 176.175C109.709 173.301 109.161 167.279 107.519 166.459C97.392 162.49 94.9286 153.595 92.739 142.236C90.5494 130.877 91.781 94.7477 91.781 94.7477L104.508 88.3155L139.68 86.2627L149.67 102.822C149.67 102.822 146.008 112.708 145.701 122.6C148.099 120.684 152.287 118.046 155.417 119.929C157.443 121.144 158.664 123.043 159.183 125.168C159.857 127.921 159.348 131.063 157.881 133.614C156.862 135.388 155.669 137.156 154.016 138.514C151.678 140.436 148.416 141.525 143.385 140.638C143.588 143.337 148.848 143.452 148.848 146.205C148.848 148.806 148.75 152.774 148.848 154.28C149.669 166.597 156.375 170.839 159.796 174.945C163.217 179.05 129.005 190.681 119.973 190.271Z" fill="#81D4FA"/>
<path d="M93.8357 139.361C99.3524 139.361 103.825 134.498 103.825 128.499C103.825 122.501 99.3524 117.638 93.8357 117.638C88.319 117.638 83.8468 122.501 83.8468 128.499C83.8468 134.498 88.319 139.361 93.8357 139.361Z" fill="#0277BD"/>
<path d="M93.8353 137.208C98.2938 137.208 101.908 133.309 101.908 128.5C101.908 123.69 98.2938 119.791 93.8353 119.791C89.3768 119.791 85.7625 123.69 85.7625 128.5C85.7625 133.309 89.3768 137.208 93.8353 137.208Z" fill="#E1F5FE"/>
<path d="M120.179 140.182C125.507 140.182 129.827 135.648 129.827 130.055C129.827 124.462 125.507 119.928 120.179 119.928C114.85 119.928 110.531 124.462 110.531 130.055C110.531 135.648 114.85 140.182 120.179 140.182Z" fill="#0277BD"/>
<path d="M120.178 138.608C124.42 138.608 127.859 134.778 127.859 130.054C127.859 125.33 124.42 121.501 120.178 121.501C115.936 121.501 112.498 125.33 112.498 130.054C112.498 134.778 115.936 138.608 120.178 138.608Z" fill="#E1F5FE"/>
<path d="M103.344 125.166C103.344 125.166 108.305 123.28 111.573 126.839C111.573 127.455 111.078 128.499 111.078 128.499C111.078 128.499 106.695 125.06 103.344 127.659C102.798 126.583 102.469 125.416 103.344 125.166Z" fill="#0277BD"/>
<path d="M129.015 127.412L145.55 121.501L145.392 122.964L129.544 129.586L129.015 127.412Z" fill="#0277BD"/>
<path d="M61.8486 200.274C61.4836 199.283 61.3403 198.224 61.4287 197.172C61.517 196.119 61.8349 195.099 62.36 194.183L66.6002 186.712C66.6002 186.712 67.1476 183.793 79.5557 182.059C91.9637 180.326 103.901 177.208 105.193 176.174C105.193 176.174 127.118 195.008 159.401 174.483C159.401 174.483 185.754 189.358 191.775 189.906C195.313 190.228 198.063 197.191 199.73 202.884C200.007 203.828 200.086 204.82 199.964 205.797C199.841 206.773 199.52 207.715 199.019 208.562C198.518 209.41 197.848 210.145 197.051 210.723C196.254 211.301 195.347 211.709 194.386 211.922C167.743 217.849 75.0981 235.67 61.8486 200.274Z" fill="#0277BD"/>
<path d="M154.017 138.513C150.891 145.952 148.756 149.083 146.249 148.804C143.633 148.514 142.806 144.282 142.981 140.56C148.242 141.584 151.619 140.483 154.017 138.513Z" fill="#039BE5"/>
<path d="M159.251 124.991C159.229 125.051 159.207 125.112 159.185 125.166C158.665 123.042 157.444 121.143 155.419 119.928C152.206 117.996 147.876 120.825 145.511 122.758C145.96 114.141 145.204 104.392 140.502 102.273C132.291 98.5783 131.957 99.3995 126.855 99.6732C122.065 99.9304 110.323 100.669 108.33 99.5145C109.644 100.746 115.846 106.034 125.738 106.516C126.855 107.337 126.132 108.021 125.038 107.884C123.944 107.747 109.026 107.474 97.8042 93.3779C97.8042 93.3779 91.2955 105.552 91.4377 116.506C91.4377 116.506 87.2657 108.295 89.8666 96.5251C91.4377 87.7665 95.4777 88.5871 95.4777 88.5871C95.4777 88.5871 92.7394 69.0179 111.488 70.797C116.962 71.4813 126.269 79.5557 132.564 79.4187C138.859 79.2818 144.607 79.6926 144.607 79.6926C144.607 79.6926 153.502 78.3239 155.008 90.3672C155.073 92.7915 156.823 93.8841 161.577 94.4728C166.477 95.0794 165.683 107.748 159.251 124.991Z" fill="#039BE5"/>
<path d="M204.011 229.062C216.596 229.062 226.798 218.86 226.798 206.276C226.798 193.691 216.596 183.489 204.011 183.489C191.427 183.489 181.225 193.691 181.225 206.276C181.225 218.86 191.427 229.062 204.011 229.062Z" fill="#039BE5" stroke="white" stroke-width="15" stroke-miterlimit="10"/>
<path d="M196.658 205.5L203.159 212L212.001 201" stroke="white" stroke-width="3" stroke-linecap="round" stroke-linejoin="round"/>
</svg>
